<?xml version="1.0" encoding="UTF-8" standalone="no"?>
<!-- Created with Inkscape (http://www.inkscape.org/) -->
<svg
   xmlns:dc="http://purl.org/dc/elements/1.1/"
   xmlns:cc="http://web.resource.org/cc/"
   xmlns:rdf="http://www.w3.org/1999/02/22-rdf-syntax-ns#"
   xmlns:svg="http://www.w3.org/2000/svg"
   xmlns="http://www.w3.org/2000/svg"
   xmlns:xlink="http://www.w3.org/1999/xlink"
   xmlns:sodipodi="http://sodipodi.sourceforge.net/DTD/sodipodi-0.dtd"
   xmlns:inkscape="http://www.inkscape.org/namespaces/inkscape"
   width="64px"
   height="64px"
   id="svg2263"
   sodipodi:version="0.32"
   inkscape:version="0.45"
   sodipodi:docname="glpython.svg"
   sodipodi:docbase="/home/rougier/Development/dana/glpython/glpython/data"
   inkscape:output_extension="org.inkscape.output.svg.inkscape"
   inkscape:export-filename="/home/rougier/Development/glpython/glpython/data/glpython.png"
   inkscape:export-xdpi="720"
   inkscape:export-ydpi="720"
   sodipodi:modified="true">
  <sodipodi:namedview
     id="base"
     pagecolor="#ffffff"
     bordercolor="#666666"
     borderopacity="1.0"
     inkscape:pageopacity="0.0"
     inkscape:pageshadow="2"
     inkscape:zoom="5.5"
     inkscape:cx="32"
     inkscape:cy="32.21"
     inkscape:current-layer="layer1"
     showgrid="true"
     inkscape:document-units="px"
     inkscape:grid-bbox="true"
     inkscape:window-width="872"
     inkscape:window-height="624"
     inkscape:window-x="211"
     inkscape:window-y="130" />
  <defs
     id="defs2265">
    <linearGradient
       id="linearGradient9515">
      <stop
         offset="0"
         id="stop9517"
         style="stop-color:#387eb8;stop-opacity:1" />
      <stop
         offset="1"
         id="stop9519"
         style="stop-color:#366994;stop-opacity:1" />
    </linearGradient>
    <linearGradient
       id="linearGradient11301">
      <stop
         offset="0"
         id="stop11303"
         style="stop-color:#ffe052;stop-opacity:1" />
      <stop
         offset="1"
         id="stop11305"
         style="stop-color:#ffc331;stop-opacity:1" />
    </linearGradient>
    <linearGradient
       id="linearGradient35450">
      <stop
         offset="0"
         id="stop35452"
         style="stop-color:#ffec90;stop-opacity:1;" />
      <stop
         offset="1"
         id="stop35454"
         style="stop-color:#be9c00;stop-opacity:1;" />
    </linearGradient>
    <linearGradient
       id="linearGradient41312">
      <stop
         offset="0"
         id="stop41314"
         style="stop-color:#3375aa;stop-opacity:1;" />
      <stop
         offset="1"
         id="stop41316"
         style="stop-color:#85b4da;stop-opacity:0.98969072;" />
    </linearGradient>
    <linearGradient
       inkscape:collect="always"
       id="linearGradient8662">
      <stop
         offset="0"
         id="stop8664"
         style="stop-color:#000000;stop-opacity:1;" />
      <stop
         offset="1"
         id="stop8666"
         style="stop-color:#000000;stop-opacity:0;" />
    </linearGradient>
    <radialGradient
       inkscape:collect="always"
       id="radialGradient1503"
       r="15.644737"
       gradientTransform="matrix(1,0,0,0.536723,0,16.87306)"
       cx="24.837126"
       cy="36.421127"
       gradientUnits="userSpaceOnUse"
       xlink:href="#linearGradient8662"
       fy="36.421127"
       fx="24.837126" />
    <linearGradient
       inkscape:collect="always"
       id="linearGradient2191"
       x1="55.549179"
       y1="77.070274"
       gradientTransform="matrix(0.4416989,0.2208494,-0.4416989,0.2208494,41.792385,-28.078603)"
       x2="110.14919"
       gradientUnits="userSpaceOnUse"
       xlink:href="#linearGradient9515"
       y2="131.85291" />
    <linearGradient
       inkscape:collect="always"
       id="linearGradient2194"
       x1="89.136749"
       y1="111.92053"
       gradientTransform="matrix(0.4416989,0.2208494,-0.4416989,0.2208494,41.792385,-28.078603)"
       x2="147.77737"
       gradientUnits="userSpaceOnUse"
       xlink:href="#linearGradient11301"
       y2="168.1012" />
    <linearGradient
       inkscape:collect="always"
       id="linearGradient2197"
       x1="100.77368"
       y1="140.5735"
       gradientTransform="matrix(0.6439586,0,0,0.6439586,-42.299155,-56.915393)"
       x2="92.406815"
       gradientUnits="userSpaceOnUse"
       xlink:href="#linearGradient35450"
       y2="140.5735" />
    <linearGradient
       inkscape:collect="always"
       id="linearGradient2200"
       x1="65.686142"
       y1="149.87254"
       gradientTransform="matrix(0.6439586,0,0,0.6439586,-42.299155,-56.915393)"
       x2="112.98984"
       gradientUnits="userSpaceOnUse"
       xlink:href="#linearGradient35450"
       y2="149.87254" />
    <linearGradient
       inkscape:collect="always"
       id="linearGradient2203"
       x1="94.539032"
       y1="149.29968"
       gradientTransform="matrix(0.6439586,0,0,0.6439586,-42.299155,-56.915393)"
       x2="164.59373"
       gradientUnits="userSpaceOnUse"
       xlink:href="#linearGradient35450"
       y2="149.29968" />
    <linearGradient
       inkscape:collect="always"
       id="linearGradient2206"
       x1="128.57812"
       y1="101.62586"
       gradientTransform="matrix(0.6439586,0,0,0.6439586,-42.299155,-56.915393)"
       x2="138.41829"
       gradientUnits="userSpaceOnUse"
       xlink:href="#linearGradient41312"
       y2="101.62586" />
    <linearGradient
       inkscape:collect="always"
       id="linearGradient7082"
       x1="128.57812"
       y1="101.62586"
       gradientTransform="matrix(0.6439586,0,0,0.6439586,-42.299155,-56.915393)"
       x2="138.41829"
       gradientUnits="userSpaceOnUse"
       xlink:href="#linearGradient41312"
       y2="101.62586" />
    <linearGradient
       inkscape:collect="always"
       id="linearGradient7084"
       x1="55.549179"
       y1="77.070274"
       gradientTransform="matrix(0.4416989,0.2208494,-0.4416989,0.2208494,41.792385,-28.078603)"
       x2="110.14919"
       gradientUnits="userSpaceOnUse"
       xlink:href="#linearGradient9515"
       y2="131.85291" />
    <linearGradient
       inkscape:collect="always"
       id="linearGradient7087"
       x1="55.549179"
       y1="77.070274"
       gradientTransform="matrix(0.4416989,0.2208494,-0.4416989,0.2208494,41.792385,-28.078603)"
       x2="110.14919"
       gradientUnits="userSpaceOnUse"
       xlink:href="#linearGradient9515"
       y2="131.85291" />
    <linearGradient
       inkscape:collect="always"
       id="linearGradient7090"
       x1="128.57812"
       y1="101.62586"
       gradientTransform="matrix(0.6439586,0,0,0.6439586,-42.299155,-56.915393)"
       x2="138.41829"
       gradientUnits="userSpaceOnUse"
       xlink:href="#linearGradient41312"
       y2="101.62586" />
    <linearGradient
       inkscape:collect="always"
       id="linearGradient7102"
       x1="94.539032"
       y1="149.29968"
       gradientTransform="matrix(0.6439586,0,0,0.6439586,-42.299155,-56.915393)"
       x2="164.59373"
       gradientUnits="userSpaceOnUse"
       xlink:href="#linearGradient35450"
       y2="149.29968" />
    <linearGradient
       inkscape:collect="always"
       id="linearGradient7104"
       x1="65.686142"
       y1="149.87254"
       gradientTransform="matrix(0.6439586,0,0,0.6439586,-42.299155,-56.915393)"
       x2="112.98984"
       gradientUnits="userSpaceOnUse"
       xlink:href="#linearGradient35450"
       y2="149.87254" />
    <linearGradient
       inkscape:collect="always"
       id="linearGradient7106"
       x1="100.77368"
       y1="140.5735"
       gradientTransform="matrix(0.6439586,0,0,0.6439586,-42.299155,-56.915393)"
       x2="92.406815"
       gradientUnits="userSpaceOnUse"
       xlink:href="#linearGradient35450"
       y2="140.5735" />
    <linearGradient
       inkscape:collect="always"
       id="linearGradient7108"
       x1="89.136749"
       y1="111.92053"
       gradientTransform="matrix(0.4416989,0.2208494,-0.4416989,0.2208494,41.792385,-28.078603)"
       x2="147.77737"
       gradientUnits="userSpaceOnUse"
       xlink:href="#linearGradient11301"
       y2="168.1012" />
    <linearGradient
       inkscape:collect="always"
       id="linearGradient7110"
       x1="128.57812"
       y1="101.62586"
       gradientTransform="matrix(0.6439586,0,0,0.6439586,-42.299155,-56.915393)"
       x2="138.41829"
       gradientUnits="userSpaceOnUse"
       xlink:href="#linearGradient41312"
       y2="101.62586" />
    <linearGradient
       inkscape:collect="always"
       id="linearGradient7112"
       x1="55.549179"
       y1="77.070274"
       gradientTransform="matrix(0.4416989,0.2208494,-0.4416989,0.2208494,41.792385,-28.078603)"
       x2="110.14919"
       gradientUnits="userSpaceOnUse"
       xlink:href="#linearGradient9515"
       y2="131.85291" />
    <radialGradient
       inkscape:collect="always"
       id="radialGradient7128"
       r="15.644737"
       gradientTransform="matrix(1,0,0,0.536723,0,16.87306)"
       cx="24.837126"
       cy="36.421127"
       gradientUnits="userSpaceOnUse"
       xlink:href="#linearGradient8662"
       fy="36.421127"
       fx="24.837126" />
    <linearGradient
       inkscape:collect="always"
       id="linearGradient7130"
       x1="128.57812"
       y1="101.62586"
       gradientTransform="matrix(0.6439586,0,0,0.6439586,-42.299155,-56.915393)"
       x2="138.41829"
       gradientUnits="userSpaceOnUse"
       xlink:href="#linearGradient41312"
       y2="101.62586" />
    <linearGradient
       inkscape:collect="always"
       id="linearGradient7132"
       x1="55.549179"
       y1="77.070274"
       gradientTransform="matrix(0.4416989,0.2208494,-0.4416989,0.2208494,41.792385,-28.078603)"
       x2="110.14919"
       gradientUnits="userSpaceOnUse"
       xlink:href="#linearGradient9515"
       y2="131.85291" />
  </defs>
  <metadata
     id="metadata2268">
    <rdf:RDF>
      <cc:Work
         rdf:about="">
        <dc:format>image/svg+xml</dc:format>
        <dc:type
           rdf:resource="http://purl.org/dc/dcmitype/StillImage" />
        <dc:title>GLPython logo</dc:title>
        <dc:date>May, 8 2007</dc:date>
        <dc:creator>
          <cc:Agent>
            <dc:title>Nicolas Rougier</dc:title>
          </cc:Agent>
        </dc:creator>
        <dc:rights>
          <cc:Agent>
            <dc:title />
          </cc:Agent>
        </dc:rights>
        <cc:license
           rdf:resource="http://creativecommons.org/licenses/by-sa/2.5/" />
        <dc:description>Isometric Python logo</dc:description>
      </cc:Work>
      <cc:License
         rdf:about="http://creativecommons.org/licenses/by-sa/2.5/">
        <cc:permits
           rdf:resource="http://web.resource.org/cc/Reproduction" />
        <cc:permits
           rdf:resource="http://web.resource.org/cc/Distribution" />
        <cc:requires
           rdf:resource="http://web.resource.org/cc/Notice" />
        <cc:requires
           rdf:resource="http://web.resource.org/cc/Attribution" />
        <cc:permits
           rdf:resource="http://web.resource.org/cc/DerivativeWorks" />
        <cc:requires
           rdf:resource="http://web.resource.org/cc/ShareAlike" />
      </cc:License>
    </rdf:RDF>
  </metadata>
  <g
     inkscape:groupmode="layer"
     id="layer1"
     inkscape:label="Layer 1">
    <path
       sodipodi:nodetypes="ccccc"
       style="color:#000000;fill:#ffffff;fill-opacity:1;fill-rule:nonzero;stroke:#000000;stroke-width:0.5;stroke-linecap:butt;stroke-linejoin:round;marker:none;marker-start:none;marker-mid:none;marker-end:none;stroke-miterlimit:4;stroke-dasharray:none;stroke-dashoffset:0;stroke-opacity:1;visibility:visible;display:inline;overflow:visible"
       d="M 45.309953,30.5194 L 45.31003,14.420435 L 33.494587,8.5127133 L 33.49451,24.611678 L 45.309953,30.5194 z "
       id="path5300" />
    <path
       id="path21813"
       sodipodi:nodetypes="csssc"
       style="color:#000000;fill:#ffffff;fill-opacity:1;fill-rule:nonzero;stroke:#000000;stroke-width:0.5;stroke-linecap:butt;stroke-linejoin:round;marker:none;marker-start:none;marker-mid:none;marker-end:none;stroke-miterlimit:4;stroke-dasharray:none;stroke-dashoffset:0;stroke-opacity:1;visibility:visible;display:inline;overflow:visible"
       d="M 41.524294,9.5902943 C 40.348741,9.0025147 40.348741,8.0523924 41.524294,7.4646185 C 42.69984,6.8768395 44.600091,6.8768395 45.775644,7.4646185 C 46.951197,8.0523924 46.951197,9.0025147 45.775644,9.5902943 C 44.600098,10.178068 42.69984,10.178068 41.524294,9.5902943 z " />
    <path
       style="color:#000000;fill:#ffffff;fill-opacity:1;fill-rule:nonzero;stroke:#000000;stroke-width:0.5;stroke-linecap:butt;stroke-linejoin:round;marker:none;marker-start:none;marker-mid:none;marker-end:none;stroke-miterlimit:4;stroke-dasharray:none;stroke-dashoffset:0;stroke-opacity:1;visibility:visible;display:inline;overflow:visible"
       id="path8615"
       d="M 56.032784,8.8515579 C 43.651199,2.6607672 39.054983,5.7320602 39.054983,5.7320602 L 33.506146,8.5202863 L 45.321589,14.428008 L 43.651418,15.263093 L 27.142921,7.0088459 C 27.142921,7.0088459 20.118484,2.5980907 7.6253506,8.8446547 C -4.8677805,15.091221 2.4906011,18.327376 2.4906011,18.327376 L 6.6177254,20.390942 L 12.415023,17.492291 C 12.415023,17.492291 19.107909,13.923389 26.135293,17.437078 C 33.162678,20.950767 37.854116,23.296489 37.854116,23.296489 C 37.854116,23.296489 44.33176,26.641738 50.801413,23.406915 C 57.271071,20.172086 61.498808,18.058215 61.498808,18.058215 C 61.498808,18.058215 68.972102,15.321217 56.032784,8.8515579 z M 45.777093,7.4643474 C 46.952639,8.0521219 46.952639,9.0022506 45.777093,9.5900239 C 44.60154,10.177797 42.701289,10.177797 41.525736,9.5900239 C 40.35019,9.0022506 40.35019,8.0521219 41.525736,7.4643474 C 42.701289,6.8765723 44.60154,6.8765723 45.777093,7.4643474 z " />
    <path
       sodipodi:nodetypes="cccscsccccccccscscc"
       style="color:#000000;fill:#ffffff;fill-opacity:1;fill-rule:nonzero;stroke:#000000;stroke-width:0.5;stroke-linecap:butt;stroke-linejoin:round;marker:none;marker-start:none;marker-mid:none;marker-end:none;stroke-miterlimit:4;stroke-dasharray:none;stroke-dashoffset:0;stroke-opacity:1;visibility:visible;display:inline;overflow:visible"
       d="M 63.632674,15.888158 C 63.883586,14.395204 63.883509,30.494169 63.632597,31.987123 C 63.381685,33.480077 61.513361,34.164328 61.513361,34.164328 C 61.513361,34.164328 57.285625,36.278199 50.815966,39.513028 C 44.346314,42.747851 37.86867,39.402602 37.86867,39.402602 C 37.86867,39.402602 33.177232,37.05688 26.149847,33.543191 C 19.122462,30.029502 12.429575,33.598404 12.429575,33.598404 L 6.6322788,36.497055 L 2.5051546,34.433489 C 2.5051546,34.433489 0.66555808,33.624452 0.38760623,32.034589 C 0.10965437,30.444726 0.10973165,14.345761 0.3876835,15.935624 C 0.66563535,17.525487 2.5052319,18.334524 2.5052319,18.334524 L 6.6323561,20.39809 L 12.429652,17.499439 C 12.429652,17.499439 19.122539,13.930537 26.149924,17.444226 C 33.177309,20.957915 37.868747,23.303637 37.868747,23.303637 C 37.868747,23.303637 44.346391,26.648886 50.816043,23.414063 C 57.285702,20.179234 61.513438,18.065363 61.513438,18.065363 C 61.513438,18.065363 63.381762,17.381112 63.632674,15.888158 z "
       id="path4321" />
    <path
       sodipodi:nodetypes="ccsccccccsc"
       style="color:#000000;fill:#ffffff;fill-opacity:1;fill-rule:nonzero;stroke:#000000;stroke-width:0.5;stroke-linecap:butt;stroke-linejoin:round;marker:none;marker-start:none;marker-mid:none;marker-end:none;stroke-miterlimit:4;stroke-dasharray:none;stroke-dashoffset:0;stroke-opacity:1;visibility:visible;display:inline;overflow:visible"
       d="M 63.698506,28.098398 C 63.420548,26.508535 63.420548,42.446517 63.698506,44.03638 C 63.976465,45.626243 62.692772,47.996919 56.446206,51.120202 C 43.953074,57.366768 36.928639,52.956012 36.928639,52.956012 L 20.420143,44.70177 L 18.749966,45.536855 L 18.749966,29.598873 L 20.420143,28.763788 L 36.928639,37.01803 C 36.928639,37.01803 43.953074,41.428786 56.446206,35.18222 C 62.692772,32.058937 63.976465,29.688261 63.698506,28.098398 z "
       id="path11138" />
    <path
       sodipodi:nodetypes="csssc"
       style="color:#000000;fill:#ffffff;fill-opacity:1;fill-rule:nonzero;stroke:#ffffff;stroke-width:0.12879172;stroke-linecap:butt;stroke-linejoin:round;marker:none;marker-start:none;marker-mid:none;marker-end:none;stroke-miterlimit:4;stroke-dasharray:none;stroke-dashoffset:0;stroke-opacity:1;visibility:visible;display:inline;overflow:visible"
       id="path23753"
       d="M 22.509923,34.54528 C 23.685475,35.133054 23.685475,36.083182 22.509923,36.670956 C 21.334371,37.258729 19.43412,37.258729 18.258567,36.670956 C 17.083021,36.083182 17.083021,35.133054 18.258567,34.54528 C 19.43412,33.957507 21.334371,33.957507 22.509923,34.54528 z " />
    <path
       style="fill:#7a4b25;fill-opacity:1;fill-rule:evenodd;stroke:#000000;stroke-width:0.5;stroke-linecap:butt;stroke-linejoin:round;stroke-miterlimit:4;stroke-dasharray:none;stroke-opacity:1"
       id="path19866"
       d="M 6.6219517,20.385288 L 6.6219517,25.719815 L 6.6219517,25.719815" />
    <path
       style="color:#000000;fill:#ffffff;fill-opacity:1;fill-rule:nonzero;stroke:#000000;stroke-width:0.5;stroke-linecap:butt;stroke-linejoin:round;marker:none;marker-start:none;marker-mid:none;marker-end:none;stroke-miterlimit:4;stroke-dasharray:none;stroke-dashoffset:0;stroke-opacity:1;visibility:visible;display:inline;overflow:visible"
       d="M 7.9892168,35.286825 C 20.370805,41.477617 24.967017,38.406321 24.967017,38.406321 L 30.515861,35.618096 L 18.700414,29.710375 L 20.370588,28.875289 L 36.879086,37.129531 C 36.879086,37.129531 43.903522,41.540287 56.396653,35.293721 C 68.889792,29.047162 61.531405,25.811 61.531405,25.811 L 57.404281,23.747441 L 51.606986,26.646085 C 51.606986,26.646085 44.914105,30.214994 37.886714,26.701298 C 30.859329,23.187609 26.167891,20.841887 26.167891,20.841887 C 26.167891,20.841887 19.690247,17.496638 13.220587,20.731467 C 6.7509353,23.96629 2.5231925,26.080161 2.5231925,26.080161 C 2.5231925,26.080161 -4.950101,28.817166 7.9892168,35.286825 z M 18.244913,36.674034 C 17.069362,36.086254 17.069362,35.136132 18.244913,34.548359 C 19.420463,33.960579 21.320713,33.960579 22.496264,34.548359 C 23.671817,35.136132 23.671817,36.086254 22.496264,36.674034 C 21.320718,37.261807 19.420463,37.261807 18.244913,36.674034 z "
       id="path8620" />
    <path
       sodipodi:nodetypes="cccsccscc"
       style="color:#000000;fill:#ffffff;fill-opacity:1;fill-rule:nonzero;stroke:#000000;stroke-width:0.5;stroke-linecap:butt;stroke-linejoin:round;marker:none;marker-start:none;marker-mid:none;marker-end:none;stroke-miterlimit:4;stroke-dasharray:none;stroke-dashoffset:0;stroke-opacity:1;visibility:visible;display:inline;overflow:visible"
       d="M 30.406137,35.581944 L 30.406137,51.519926 L 24.857293,54.308151 C 24.857293,54.308151 20.261078,57.379447 7.8794927,51.188655 C 1.4098338,47.953825 0.043327895,45.652162 0.29423348,44.159202 C 0.54513907,42.666242 0.54513907,26.728261 0.29423348,28.221221 C 0.043327895,29.714181 1.4098338,32.015843 7.8794927,35.250673 C 20.261078,41.441465 24.857293,38.370169 24.857293,38.370169 L 30.406137,35.581944 z "
       id="path8214" />
  </g>
</svg>
