<?xml version="1.0" encoding="UTF-8" standalone="no"?>
<!-- Created with Inkscape (http://www.inkscape.org/) -->

<svg
   xmlns:dc="http://purl.org/dc/elements/1.1/"
   xmlns:cc="http://creativecommons.org/ns#"
   xmlns:rdf="http://www.w3.org/1999/02/22-rdf-syntax-ns#"
   xmlns:svg="http://www.w3.org/2000/svg"
   xmlns="http://www.w3.org/2000/svg"
   xmlns:xlink="http://www.w3.org/1999/xlink"
   xmlns:sodipodi="http://sodipodi.sourceforge.net/DTD/sodipodi-0.dtd"
   xmlns:inkscape="http://www.inkscape.org/namespaces/inkscape"
   version="1.0"
   width="24"
   height="24"
   id="svg3262"
   sodipodi:version="0.32"
   inkscape:version="0.47 r22583"
   sodipodi:docname="dana.svg"
   inkscape:output_extension="org.inkscape.output.svg.inkscape"
   inkscape:export-filename="/Volumes/Data/Users/rougier/Development/dana/trunk/website/dana.png"
   inkscape:export-xdpi="60"
   inkscape:export-ydpi="60">
  <metadata
     id="metadata15">
    <rdf:RDF>
      <cc:Work
         rdf:about="">
        <dc:format>image/svg+xml</dc:format>
        <dc:type
           rdf:resource="http://purl.org/dc/dcmitype/StillImage" />
        <dc:title></dc:title>
      </cc:Work>
    </rdf:RDF>
  </metadata>
  <sodipodi:namedview
     inkscape:window-height="815"
     inkscape:window-width="997"
     inkscape:pageshadow="2"
     inkscape:pageopacity="0"
     guidetolerance="10.0"
     gridtolerance="10.0"
     objecttolerance="10.0"
     borderopacity="1.0"
     bordercolor="#666666"
     pagecolor="#7f7f7f"
     id="base"
     showgrid="false"
     inkscape:zoom="20.75"
     inkscape:cx="9.4837552"
     inkscape:cy="11.222843"
     inkscape:window-x="0"
     inkscape:window-y="0"
     inkscape:current-layer="svg3262"
     inkscape:window-maximized="0" />
  <defs
     id="defs3264">
    <inkscape:perspective
       sodipodi:type="inkscape:persp3d"
       inkscape:vp_x="0 : 12 : 1"
       inkscape:vp_y="0 : 1000 : 0"
       inkscape:vp_z="24 : 12 : 1"
       inkscape:persp3d-origin="12 : 8 : 1"
       id="perspective15" />
    <linearGradient
       id="linearGradient3587-6-5-3">
      <stop
         id="stop3589-9-2-2"
         style="stop-color:#000000;stop-opacity:1"
         offset="0" />
      <stop
         id="stop3591-7-4-73"
         style="stop-color:#363636;stop-opacity:1"
         offset="1" />
    </linearGradient>
    <linearGradient
       inkscape:collect="always"
       xlink:href="#linearGradient3587-6-5-3"
       id="linearGradient2393"
       gradientUnits="userSpaceOnUse"
       gradientTransform="matrix(-0.4100229,0,0,0.5447147,79.029995,-2.8459034)"
       x1="159.68553"
       y1="14.403693"
       x2="159.68553"
       y2="38.279892" />
    <inkscape:perspective
       id="perspective3789"
       inkscape:persp3d-origin="0.5 : 0.33333333 : 1"
       inkscape:vp_z="1 : 0.5 : 1"
       inkscape:vp_y="0 : 1000 : 0"
       inkscape:vp_x="0 : 0.5 : 1"
       sodipodi:type="inkscape:persp3d" />
    <linearGradient
       inkscape:collect="always"
       xlink:href="#linearGradient3587-6-5-3"
       id="linearGradient3610"
       x1="22.453125"
       y1="7.21875"
       x2="22.453125"
       y2="38.75"
       gradientUnits="userSpaceOnUse" />
    <inkscape:perspective
       id="perspective3620"
       inkscape:persp3d-origin="0.5 : 0.33333333 : 1"
       inkscape:vp_z="1 : 0.5 : 1"
       inkscape:vp_y="0 : 1000 : 0"
       inkscape:vp_x="0 : 0.5 : 1"
       sodipodi:type="inkscape:persp3d" />
    <linearGradient
       inkscape:collect="always"
       xlink:href="#linearGradient3604-9"
       id="linearGradient3610-7"
       x1="22.453125"
       y1="7.21875"
       x2="22.453125"
       y2="38.75"
       gradientUnits="userSpaceOnUse" />
    <linearGradient
       inkscape:collect="always"
       id="linearGradient3604-9">
      <stop
         style="stop-color:#000000;stop-opacity:1;"
         offset="0"
         id="stop3606-3" />
      <stop
         style="stop-color:#000000;stop-opacity:0;"
         offset="1"
         id="stop3608-8" />
    </linearGradient>
    <linearGradient
       inkscape:collect="always"
       xlink:href="#linearGradient3587-6-5-3"
       id="linearGradient3654"
       gradientUnits="userSpaceOnUse"
       x1="22.453125"
       y1="7.21875"
       x2="22.453125"
       y2="38.75" />
  </defs>
  <path
     sodipodi:type="inkscape:offset"
     inkscape:radius="0.98296571"
     inkscape:original="M 22.34375 8.1875 C 20.393589 8.1874999 18.815258 9.7766589 18.78125 11.71875 L 13.90625 12.4375 C 13.323104 11.257381 12.123393 10.4375 10.71875 10.4375 C 8.7473215 10.4375 7.156251 12.028572 7.15625 14 C 7.15625 15.971428 8.7473217 17.5625 10.71875 17.5625 C 12.572281 17.5625 14.074206 16.151382 14.25 14.34375 L 19.28125 13.59375 C 19.818842 14.486394 20.739956 15.151267 21.8125 15.3125 L 23.03125 23.8125 L 16.4375 23.5625 C 16.127735 21.90586 14.68357 20.625 12.9375 20.625 C 10.966072 20.625 9.375 22.247322 9.375 24.21875 C 9.3750004 26.190178 10.966071 27.78125 12.9375 27.78125 C 14.462567 27.78125 15.769487 26.814983 16.28125 25.46875 L 20.03125 25.59375 L 18.625 30.65625 C 16.653572 30.65625 15.0625 32.247321 15.0625 34.21875 C 15.0625 36.19018 16.653571 37.781251 18.625 37.78125 C 20.596428 37.781252 22.187499 36.190178 22.1875 34.21875 C 22.1875 32.922538 21.502919 31.782112 20.46875 31.15625 L 22 25.6875 L 24.125 25.75 L 24.75 25.78125 L 28.8125 28.40625 C 28.717455 28.727607 28.65625 29.054209 28.65625 29.40625 C 28.65625 31.377678 30.247324 33 32.21875 33 C 34.190178 33.000002 35.78125 31.377679 35.78125 29.40625 C 35.78125 27.434822 34.19018 25.843751 32.21875 25.84375 C 31.304678 25.84375 30.475661 26.215774 29.84375 26.78125 L 25 23.625 L 24.96875 23.6875 L 24.34375 19.40625 L 30.9375 18.75 C 31.507588 19.965245 32.757174 20.8125 34.1875 20.8125 C 36.158928 20.8125 37.749998 19.221429 37.75 17.25 C 37.75 15.278572 36.158929 13.6875 34.1875 13.6875 C 32.345241 13.6875 30.847249 15.083153 30.65625 16.875 L 24.0625 17.5 L 23.71875 15.0625 C 25.000446 14.520089 25.90625 13.259821 25.90625 11.78125 C 25.90625 9.8098218 24.315179 8.1875004 22.34375 8.1875 z "
     xlink:href="#path2961"
     style="fill:#ffffff;fill-opacity:1;stroke:none;stroke-width:0.13869607;marker:none;visibility:visible;display:inline;overflow:visible"
     id="path2406-0-0"
     d="m 22.34375,7.21875 c -2.179033,-1e-7 -3.900305,1.577229 -4.34375,3.625 l -3.75,0.5625 c -0.825643,-1.12016 -2.033777,-1.9375 -3.53125,-1.9375 -2.500307,0 -4.5312487,2.030944 -4.53125,4.53125 0,2.500307 2.0309431,4.53125 4.53125,4.53125 2.070321,0 3.740046,-1.411359 4.28125,-3.3125 L 18.9375,14.625 c 0.530673,0.631962 1.196109,1.101892 2,1.375 L 21.90625,22.8125 17.125,22.625 c -0.651418,-1.718018 -2.244228,-2.96875 -4.1875,-2.96875 -2.510694,0 -4.53125,2.062193 -4.53125,4.5625 5e-7,2.500306 2.030943,4.53125 4.53125,4.53125 1.650073,0 2.950004,-0.989392 3.75,-2.3125 l 2.09375,0.09375 -0.9375,3.3125 c -2.113139,0.388181 -3.75,2.153933 -3.75,4.375 0,2.500308 2.030943,4.531251 4.53125,4.53125 2.500308,3e-6 4.531249,-2.030944 4.53125,-4.53125 0,-1.339386 -0.662897,-2.474399 -1.59375,-3.3125 l 1.15625,-4.21875 1.34375,0.03125 0.03125,0 0.34375,0.03125 3.3125,2.125 c -0.02458,0.179073 -0.0625,0.338837 -0.0625,0.53125 0,2.500307 2.020557,4.5625 4.53125,4.5625 2.510695,3e-6 4.53125,-2.062193 4.53125,-4.5625 0,-2.500306 -2.030943,-4.531249 -4.53125,-4.53125 -0.885586,0 -1.656989,0.316392 -2.34375,0.75 l -4,-2.59375 -0.40625,-2.75 5.125,-0.53125 c 0.83046,1.169721 2.062089,2.03125 3.59375,2.03125 2.500306,0 4.531247,-2.030944 4.53125,-4.53125 0,-2.500306 -2.030943,-4.53125 -4.53125,-4.53125 -2.039541,0 -3.68066,1.391667 -4.25,3.25 L 24.90625,16.4375 24.75,15.40625 c 1.212499,-0.817117 2.125,-2.057811 2.125,-3.625 0,-2.5003064 -2.020555,-4.5624995 -4.53125,-4.5625 z"
     transform="matrix(0.71063095,0,0,0.71063095,-3.649029,-3.6749493)"
     inkscape:export-filename="/users/cortex/rougier/Development/dana-svn/doc.v2/source/_static/dana.png"
     inkscape:export-xdpi="244.03999"
     inkscape:export-ydpi="244.03999"
     inkscape:href="#path2961" />
  <path
     sodipodi:type="inkscape:offset"
     inkscape:radius="0.98296571"
     inkscape:original="M 22.34375 8.1875 C 20.393589 8.1874999 18.815258 9.7766589 18.78125 11.71875 L 13.90625 12.4375 C 13.323104 11.257381 12.123393 10.4375 10.71875 10.4375 C 8.7473215 10.4375 7.156251 12.028572 7.15625 14 C 7.15625 15.971428 8.7473217 17.5625 10.71875 17.5625 C 12.572281 17.5625 14.074206 16.151382 14.25 14.34375 L 19.28125 13.59375 C 19.818842 14.486394 20.739956 15.151267 21.8125 15.3125 L 23.03125 23.8125 L 16.4375 23.5625 C 16.127735 21.90586 14.68357 20.625 12.9375 20.625 C 10.966072 20.625 9.375 22.247322 9.375 24.21875 C 9.3750004 26.190178 10.966071 27.78125 12.9375 27.78125 C 14.462567 27.78125 15.769487 26.814983 16.28125 25.46875 L 20.03125 25.59375 L 18.625 30.65625 C 16.653572 30.65625 15.0625 32.247321 15.0625 34.21875 C 15.0625 36.19018 16.653571 37.781251 18.625 37.78125 C 20.596428 37.781252 22.187499 36.190178 22.1875 34.21875 C 22.1875 32.922538 21.502919 31.782112 20.46875 31.15625 L 22 25.6875 L 24.125 25.75 L 24.75 25.78125 L 28.8125 28.40625 C 28.717455 28.727607 28.65625 29.054209 28.65625 29.40625 C 28.65625 31.377678 30.247324 33 32.21875 33 C 34.190178 33.000002 35.78125 31.377679 35.78125 29.40625 C 35.78125 27.434822 34.19018 25.843751 32.21875 25.84375 C 31.304678 25.84375 30.475661 26.215774 29.84375 26.78125 L 25 23.625 L 24.96875 23.6875 L 24.34375 19.40625 L 30.9375 18.75 C 31.507588 19.965245 32.757174 20.8125 34.1875 20.8125 C 36.158928 20.8125 37.749998 19.221429 37.75 17.25 C 37.75 15.278572 36.158929 13.6875 34.1875 13.6875 C 32.345241 13.6875 30.847249 15.083153 30.65625 16.875 L 24.0625 17.5 L 23.71875 15.0625 C 25.000446 14.520089 25.90625 13.259821 25.90625 11.78125 C 25.90625 9.8098218 24.315179 8.1875004 22.34375 8.1875 z "
     xlink:href="#path2961"
     style="fill:#000000;fill-opacity:1;stroke:none;stroke-width:0.13869607;marker:none;visibility:visible;display:inline;overflow:visible"
     id="path2406-0"
     d="m 22.34375,7.21875 c -2.179033,-1e-7 -3.900305,1.577229 -4.34375,3.625 l -3.75,0.5625 c -0.825643,-1.12016 -2.033777,-1.9375 -3.53125,-1.9375 -2.500307,0 -4.5312487,2.030944 -4.53125,4.53125 0,2.500307 2.0309431,4.53125 4.53125,4.53125 2.070321,0 3.740046,-1.411359 4.28125,-3.3125 L 18.9375,14.625 c 0.530673,0.631962 1.196109,1.101892 2,1.375 L 21.90625,22.8125 17.125,22.625 c -0.651418,-1.718018 -2.244228,-2.96875 -4.1875,-2.96875 -2.510694,0 -4.53125,2.062193 -4.53125,4.5625 5e-7,2.500306 2.030943,4.53125 4.53125,4.53125 1.650073,0 2.950004,-0.989392 3.75,-2.3125 l 2.09375,0.09375 -0.9375,3.3125 c -2.113139,0.388181 -3.75,2.153933 -3.75,4.375 0,2.500308 2.030943,4.531251 4.53125,4.53125 2.500308,3e-6 4.531249,-2.030944 4.53125,-4.53125 0,-1.339386 -0.662897,-2.474399 -1.59375,-3.3125 l 1.15625,-4.21875 1.34375,0.03125 0.03125,0 0.34375,0.03125 3.3125,2.125 c -0.02458,0.179073 -0.0625,0.338837 -0.0625,0.53125 0,2.500307 2.020557,4.5625 4.53125,4.5625 2.510695,3e-6 4.53125,-2.062193 4.53125,-4.5625 0,-2.500306 -2.030943,-4.531249 -4.53125,-4.53125 -0.885586,0 -1.656989,0.316392 -2.34375,0.75 l -4,-2.59375 -0.40625,-2.75 5.125,-0.53125 c 0.83046,1.169721 2.062089,2.03125 3.59375,2.03125 2.500306,0 4.531247,-2.030944 4.53125,-4.53125 0,-2.500306 -2.030943,-4.53125 -4.53125,-4.53125 -2.039541,0 -3.68066,1.391667 -4.25,3.25 L 24.90625,16.4375 24.75,15.40625 c 1.212499,-0.817117 2.125,-2.057811 2.125,-3.625 0,-2.5003064 -2.020555,-4.5624995 -4.53125,-4.5625 z"
     transform="matrix(0.71063095,0,0,0.71063095,-4.1486569,-4.9603142)"
     inkscape:export-filename="/users/cortex/rougier/Development/dana-svn/doc.v2/source/_static/dana.png"
     inkscape:export-xdpi="244.03999"
     inkscape:export-ydpi="244.03999"
     inkscape:href="#path2961" />
</svg>
